<mxfile host="Electron" agent="Mozilla/5.0 (Windows NT 10.0; Win64; x64) AppleWebKit/537.36 (KHTML, like Gecko) draw.io/25.0.2 Chrome/128.0.6613.186 Electron/32.2.5 Safari/537.36" version="25.0.2">
  <diagram name="Page-1" id="V0pw2Zb20UL2xj4cE1I4">
    <mxGraphModel dx="1036" dy="1783" grid="1" gridSize="10" guides="1" tooltips="1" connect="1" arrows="1" fold="1" page="1" pageScale="1" pageWidth="827" pageHeight="1169" math="0" shadow="0">
      <root>
        <mxCell id="0" />
        <mxCell id="1" parent="0" />
        <mxCell id="ZhXPPXgodXc87nbnoY75-1" value="Customer" style="shape=umlLifeline;perimeter=lifelinePerimeter;whiteSpace=wrap;html=1;container=0;dropTarget=0;collapsible=0;recursiveResize=0;outlineConnect=0;portConstraint=eastwest;newEdgeStyle={&quot;edgeStyle&quot;:&quot;elbowEdgeStyle&quot;,&quot;elbow&quot;:&quot;vertical&quot;,&quot;curved&quot;:0,&quot;rounded&quot;:0};fillColor=#fad9d5;strokeColor=#ae4132;" vertex="1" parent="1">
          <mxGeometry x="40" y="40" width="100" height="330" as="geometry" />
        </mxCell>
        <mxCell id="ZhXPPXgodXc87nbnoY75-2" value="" style="html=1;points=[];perimeter=orthogonalPerimeter;outlineConnect=0;targetShapes=umlLifeline;portConstraint=eastwest;newEdgeStyle={&quot;edgeStyle&quot;:&quot;elbowEdgeStyle&quot;,&quot;elbow&quot;:&quot;vertical&quot;,&quot;curved&quot;:0,&quot;rounded&quot;:0};fillColor=#fad9d5;strokeColor=#ae4132;" vertex="1" parent="ZhXPPXgodXc87nbnoY75-1">
          <mxGeometry x="45" y="70" width="10" height="230" as="geometry" />
        </mxCell>
        <mxCell id="ZhXPPXgodXc87nbnoY75-3" value="Submit Customization Request ()" style="html=1;verticalAlign=bottom;endArrow=block;edgeStyle=elbowEdgeStyle;elbow=vertical;curved=0;rounded=0;" edge="1" parent="1" source="ZhXPPXgodXc87nbnoY75-2" target="ZhXPPXgodXc87nbnoY75-25">
          <mxGeometry relative="1" as="geometry">
            <mxPoint x="195" y="130" as="sourcePoint" />
            <Array as="points">
              <mxPoint x="180" y="120" />
            </Array>
          </mxGeometry>
        </mxCell>
        <mxCell id="ZhXPPXgodXc87nbnoY75-4" value="Cratopia&#39;s Post Customization Request Scenerio" style="text;html=1;align=center;verticalAlign=middle;whiteSpace=wrap;rounded=0;fillColor=#fad9d5;strokeColor=#ae4132;" vertex="1" parent="1">
          <mxGeometry x="230" y="-30" width="240" height="30" as="geometry" />
        </mxCell>
        <mxCell id="ZhXPPXgodXc87nbnoY75-5" value="Artist" style="shape=umlLifeline;perimeter=lifelinePerimeter;whiteSpace=wrap;html=1;container=0;dropTarget=0;collapsible=0;recursiveResize=0;outlineConnect=0;portConstraint=eastwest;newEdgeStyle={&quot;edgeStyle&quot;:&quot;elbowEdgeStyle&quot;,&quot;elbow&quot;:&quot;vertical&quot;,&quot;curved&quot;:0,&quot;rounded&quot;:0};fillColor=#fad9d5;strokeColor=#ae4132;" vertex="1" parent="1">
          <mxGeometry x="300" y="40" width="100" height="350" as="geometry" />
        </mxCell>
        <mxCell id="ZhXPPXgodXc87nbnoY75-6" value="" style="html=1;points=[];perimeter=orthogonalPerimeter;outlineConnect=0;targetShapes=umlLifeline;portConstraint=eastwest;newEdgeStyle={&quot;edgeStyle&quot;:&quot;elbowEdgeStyle&quot;,&quot;elbow&quot;:&quot;vertical&quot;,&quot;curved&quot;:0,&quot;rounded&quot;:0};fillColor=#fad9d5;strokeColor=#ae4132;" vertex="1" parent="ZhXPPXgodXc87nbnoY75-5">
          <mxGeometry x="45" y="100" width="10" height="90" as="geometry" />
        </mxCell>
        <mxCell id="ZhXPPXgodXc87nbnoY75-7" value="" style="html=1;points=[];perimeter=orthogonalPerimeter;outlineConnect=0;targetShapes=umlLifeline;portConstraint=eastwest;newEdgeStyle={&quot;edgeStyle&quot;:&quot;elbowEdgeStyle&quot;,&quot;elbow&quot;:&quot;vertical&quot;,&quot;curved&quot;:0,&quot;rounded&quot;:0};fillColor=#fad9d5;strokeColor=#ae4132;" vertex="1" parent="ZhXPPXgodXc87nbnoY75-5">
          <mxGeometry x="50" y="250" width="10" height="20" as="geometry" />
        </mxCell>
        <mxCell id="ZhXPPXgodXc87nbnoY75-8" value="Notify customer of the artist&#39;s offer()" style="html=1;verticalAlign=bottom;endArrow=open;dashed=1;endSize=8;edgeStyle=elbowEdgeStyle;elbow=horizontal;curved=0;rounded=0;" edge="1" parent="1" source="ZhXPPXgodXc87nbnoY75-25">
          <mxGeometry x="-0.1444" relative="1" as="geometry">
            <mxPoint x="89.63043478260875" y="260" as="targetPoint" />
            <Array as="points">
              <mxPoint x="200" y="260" />
            </Array>
            <mxPoint x="305" y="260" as="sourcePoint" />
            <mxPoint x="1" as="offset" />
          </mxGeometry>
        </mxCell>
        <mxCell id="ZhXPPXgodXc87nbnoY75-9" value="View offer details()" style="html=1;verticalAlign=bottom;endArrow=block;edgeStyle=elbowEdgeStyle;elbow=vertical;curved=0;rounded=0;" edge="1" parent="1" target="ZhXPPXgodXc87nbnoY75-25">
          <mxGeometry x="0.0233" relative="1" as="geometry">
            <mxPoint x="100" y="280" as="sourcePoint" />
            <Array as="points">
              <mxPoint x="190" y="280" />
            </Array>
            <mxPoint x="315" y="280" as="targetPoint" />
            <mxPoint as="offset" />
          </mxGeometry>
        </mxCell>
        <mxCell id="ZhXPPXgodXc87nbnoY75-10" value="Communicate clarifications or adjustments()" style="html=1;verticalAlign=bottom;endArrow=block;edgeStyle=elbowEdgeStyle;elbow=vertical;curved=0;rounded=0;" edge="1" parent="1">
          <mxGeometry x="0.0588" relative="1" as="geometry">
            <mxPoint x="95" y="300" as="sourcePoint" />
            <Array as="points">
              <mxPoint x="195" y="300" />
            </Array>
            <mxPoint x="350" y="300" as="targetPoint" />
            <mxPoint as="offset" />
          </mxGeometry>
        </mxCell>
        <mxCell id="ZhXPPXgodXc87nbnoY75-11" value="Accept the Offer - Decline the Offer()" style="html=1;verticalAlign=bottom;endArrow=block;edgeStyle=elbowEdgeStyle;elbow=vertical;curved=0;rounded=0;" edge="1" parent="1">
          <mxGeometry x="0.1905" relative="1" as="geometry">
            <mxPoint x="95.5" y="330" as="sourcePoint" />
            <Array as="points">
              <mxPoint x="195.5" y="330" />
            </Array>
            <mxPoint x="640" y="330" as="targetPoint" />
            <mxPoint as="offset" />
          </mxGeometry>
        </mxCell>
        <mxCell id="ZhXPPXgodXc87nbnoY75-12" value="Artist&amp;nbsp;" style="shape=umlLifeline;perimeter=lifelinePerimeter;whiteSpace=wrap;html=1;container=0;dropTarget=0;collapsible=0;recursiveResize=0;outlineConnect=0;portConstraint=eastwest;newEdgeStyle={&quot;edgeStyle&quot;:&quot;elbowEdgeStyle&quot;,&quot;elbow&quot;:&quot;vertical&quot;,&quot;curved&quot;:0,&quot;rounded&quot;:0};fillColor=#fad9d5;strokeColor=#ae4132;" vertex="1" parent="1">
          <mxGeometry x="40" y="490" width="100" height="300" as="geometry" />
        </mxCell>
        <mxCell id="ZhXPPXgodXc87nbnoY75-13" value="" style="html=1;points=[];perimeter=orthogonalPerimeter;outlineConnect=0;targetShapes=umlLifeline;portConstraint=eastwest;newEdgeStyle={&quot;edgeStyle&quot;:&quot;elbowEdgeStyle&quot;,&quot;elbow&quot;:&quot;vertical&quot;,&quot;curved&quot;:0,&quot;rounded&quot;:0};fillColor=#fad9d5;strokeColor=#ae4132;" vertex="1" parent="ZhXPPXgodXc87nbnoY75-12">
          <mxGeometry x="45" y="70" width="10" height="60" as="geometry" />
        </mxCell>
        <mxCell id="ZhXPPXgodXc87nbnoY75-14" value="&amp;nbsp;Crafopia&#39;s Auction Managment Scenerio" style="text;html=1;align=center;verticalAlign=middle;whiteSpace=wrap;rounded=0;fillColor=#fad9d5;strokeColor=#ae4132;" vertex="1" parent="1">
          <mxGeometry x="270" y="420" width="240" height="30" as="geometry" />
        </mxCell>
        <mxCell id="ZhXPPXgodXc87nbnoY75-15" value="Admin" style="shape=umlLifeline;perimeter=lifelinePerimeter;whiteSpace=wrap;html=1;container=0;dropTarget=0;collapsible=0;recursiveResize=0;outlineConnect=0;portConstraint=eastwest;newEdgeStyle={&quot;edgeStyle&quot;:&quot;elbowEdgeStyle&quot;,&quot;elbow&quot;:&quot;vertical&quot;,&quot;curved&quot;:0,&quot;rounded&quot;:0};fillColor=#fad9d5;strokeColor=#ae4132;" vertex="1" parent="1">
          <mxGeometry x="290" y="490" width="100" height="430" as="geometry" />
        </mxCell>
        <mxCell id="ZhXPPXgodXc87nbnoY75-16" value="" style="html=1;points=[];perimeter=orthogonalPerimeter;outlineConnect=0;targetShapes=umlLifeline;portConstraint=eastwest;newEdgeStyle={&quot;edgeStyle&quot;:&quot;elbowEdgeStyle&quot;,&quot;elbow&quot;:&quot;vertical&quot;,&quot;curved&quot;:0,&quot;rounded&quot;:0};fillColor=#fad9d5;strokeColor=#ae4132;" vertex="1" parent="ZhXPPXgodXc87nbnoY75-15">
          <mxGeometry x="45" y="100" width="10" height="80" as="geometry" />
        </mxCell>
        <mxCell id="ZhXPPXgodXc87nbnoY75-17" value="Customer" style="shape=umlLifeline;perimeter=lifelinePerimeter;whiteSpace=wrap;html=1;container=0;dropTarget=0;collapsible=0;recursiveResize=0;outlineConnect=0;portConstraint=eastwest;newEdgeStyle={&quot;edgeStyle&quot;:&quot;elbowEdgeStyle&quot;,&quot;elbow&quot;:&quot;vertical&quot;,&quot;curved&quot;:0,&quot;rounded&quot;:0};fillColor=#fad9d5;strokeColor=#ae4132;" vertex="1" parent="1">
          <mxGeometry x="500" y="490" width="100" height="430" as="geometry" />
        </mxCell>
        <mxCell id="ZhXPPXgodXc87nbnoY75-18" value="" style="html=1;points=[];perimeter=orthogonalPerimeter;outlineConnect=0;targetShapes=umlLifeline;portConstraint=eastwest;newEdgeStyle={&quot;edgeStyle&quot;:&quot;elbowEdgeStyle&quot;,&quot;elbow&quot;:&quot;vertical&quot;,&quot;curved&quot;:0,&quot;rounded&quot;:0};fillColor=#fad9d5;strokeColor=#ae4132;" vertex="1" parent="ZhXPPXgodXc87nbnoY75-17">
          <mxGeometry x="45" y="180" width="10" height="250" as="geometry" />
        </mxCell>
        <mxCell id="ZhXPPXgodXc87nbnoY75-19" value="Request Auction()" style="html=1;verticalAlign=bottom;endArrow=block;edgeStyle=elbowEdgeStyle;elbow=vertical;curved=0;rounded=0;" edge="1" parent="1" target="ZhXPPXgodXc87nbnoY75-34">
          <mxGeometry x="-0.0742" relative="1" as="geometry">
            <mxPoint x="100" y="580" as="sourcePoint" />
            <Array as="points">
              <mxPoint x="200" y="580" />
              <mxPoint x="290" y="590" />
            </Array>
            <mxPoint x="260" y="580" as="targetPoint" />
            <mxPoint x="1" as="offset" />
          </mxGeometry>
        </mxCell>
        <mxCell id="ZhXPPXgodXc87nbnoY75-20" value="View current highest bid.()" style="html=1;verticalAlign=bottom;endArrow=block;edgeStyle=elbowEdgeStyle;elbow=vertical;curved=0;rounded=0;" edge="1" parent="1">
          <mxGeometry relative="1" as="geometry">
            <mxPoint x="560" y="690" as="sourcePoint" />
            <Array as="points">
              <mxPoint x="700.5" y="690" />
              <mxPoint x="696" y="700" />
            </Array>
            <mxPoint x="800" y="690" as="targetPoint" />
            <mxPoint as="offset" />
          </mxGeometry>
        </mxCell>
        <mxCell id="ZhXPPXgodXc87nbnoY75-21" value="Submit Bid ()" style="html=1;verticalAlign=bottom;endArrow=block;edgeStyle=elbowEdgeStyle;elbow=vertical;curved=0;rounded=0;" edge="1" parent="1">
          <mxGeometry x="-0.0973" y="3" relative="1" as="geometry">
            <mxPoint x="560" y="720" as="sourcePoint" />
            <Array as="points">
              <mxPoint x="655" y="720" />
            </Array>
            <mxPoint x="799.5" y="720" as="targetPoint" />
            <mxPoint x="1" y="1" as="offset" />
          </mxGeometry>
        </mxCell>
        <mxCell id="ZhXPPXgodXc87nbnoY75-22" value="Update existing bid ()&amp;nbsp;" style="html=1;verticalAlign=bottom;endArrow=block;edgeStyle=elbowEdgeStyle;elbow=vertical;curved=0;rounded=0;" edge="1" parent="1" target="ZhXPPXgodXc87nbnoY75-17">
          <mxGeometry x="0.0963" relative="1" as="geometry">
            <mxPoint x="794.5" y="770" as="sourcePoint" />
            <Array as="points">
              <mxPoint x="720" y="780" />
              <mxPoint x="730" y="770" />
            </Array>
            <mxPoint x="550" y="780" as="targetPoint" />
            <mxPoint x="1" as="offset" />
          </mxGeometry>
        </mxCell>
        <mxCell id="ZhXPPXgodXc87nbnoY75-23" value="" style="html=1;points=[];perimeter=orthogonalPerimeter;outlineConnect=0;targetShapes=umlLifeline;portConstraint=eastwest;newEdgeStyle={&quot;edgeStyle&quot;:&quot;elbowEdgeStyle&quot;,&quot;elbow&quot;:&quot;vertical&quot;,&quot;curved&quot;:0,&quot;rounded&quot;:0};fillColor=#fad9d5;strokeColor=#ae4132;" vertex="1" parent="1">
          <mxGeometry x="335" y="800" width="10" height="100" as="geometry" />
        </mxCell>
        <mxCell id="ZhXPPXgodXc87nbnoY75-24" value="End Auction()" style="html=1;verticalAlign=bottom;endArrow=block;edgeStyle=elbowEdgeStyle;elbow=vertical;curved=0;rounded=0;" edge="1" parent="1" source="ZhXPPXgodXc87nbnoY75-23" target="ZhXPPXgodXc87nbnoY75-33">
          <mxGeometry x="0.2093" relative="1" as="geometry">
            <mxPoint x="500" y="850" as="sourcePoint" />
            <Array as="points">
              <mxPoint x="490" y="860" />
            </Array>
            <mxPoint x="300" y="850" as="targetPoint" />
            <mxPoint as="offset" />
          </mxGeometry>
        </mxCell>
        <mxCell id="ZhXPPXgodXc87nbnoY75-25" value="Craftopia Post Customization System" style="shape=umlLifeline;perimeter=lifelinePerimeter;whiteSpace=wrap;html=1;container=0;dropTarget=0;collapsible=0;recursiveResize=0;outlineConnect=0;portConstraint=eastwest;newEdgeStyle={&quot;edgeStyle&quot;:&quot;elbowEdgeStyle&quot;,&quot;elbow&quot;:&quot;vertical&quot;,&quot;curved&quot;:0,&quot;rounded&quot;:0};fillColor=#fad9d5;strokeColor=#ae4132;" vertex="1" parent="1">
          <mxGeometry x="600" y="50" width="100" height="330" as="geometry" />
        </mxCell>
        <mxCell id="ZhXPPXgodXc87nbnoY75-26" value="" style="html=1;points=[];perimeter=orthogonalPerimeter;outlineConnect=0;targetShapes=umlLifeline;portConstraint=eastwest;newEdgeStyle={&quot;edgeStyle&quot;:&quot;elbowEdgeStyle&quot;,&quot;elbow&quot;:&quot;vertical&quot;,&quot;curved&quot;:0,&quot;rounded&quot;:0};fillColor=#fad9d5;strokeColor=#ae4132;" vertex="1" parent="ZhXPPXgodXc87nbnoY75-25">
          <mxGeometry x="45" y="60" width="10" height="270" as="geometry" />
        </mxCell>
        <mxCell id="ZhXPPXgodXc87nbnoY75-27" value="Notify Artist of New&amp;nbsp; Request ()" style="html=1;verticalAlign=bottom;endArrow=block;edgeStyle=elbowEdgeStyle;elbow=vertical;curved=0;rounded=0;" edge="1" parent="1" source="ZhXPPXgodXc87nbnoY75-26" target="ZhXPPXgodXc87nbnoY75-5">
          <mxGeometry x="0.1168" relative="1" as="geometry">
            <mxPoint x="780.5" y="160" as="sourcePoint" />
            <Array as="points">
              <mxPoint x="630" y="150" />
            </Array>
            <mxPoint x="590" y="160" as="targetPoint" />
            <mxPoint as="offset" />
          </mxGeometry>
        </mxCell>
        <mxCell id="ZhXPPXgodXc87nbnoY75-28" value="&amp;nbsp;filter requests ()" style="html=1;verticalAlign=bottom;endArrow=block;edgeStyle=elbowEdgeStyle;elbow=vertical;curved=0;rounded=0;" edge="1" parent="1">
          <mxGeometry x="-0.0526" relative="1" as="geometry">
            <mxPoint x="350" y="170" as="sourcePoint" />
            <Array as="points">
              <mxPoint x="635" y="170" />
            </Array>
            <mxPoint x="640" y="170" as="targetPoint" />
            <mxPoint as="offset" />
          </mxGeometry>
        </mxCell>
        <mxCell id="ZhXPPXgodXc87nbnoY75-29" value="Return filtered customization requests()" style="html=1;verticalAlign=bottom;endArrow=open;dashed=1;endSize=8;edgeStyle=elbowEdgeStyle;elbow=horizontal;curved=0;rounded=0;" edge="1" parent="1">
          <mxGeometry x="0.0491" relative="1" as="geometry">
            <mxPoint x="354.5" y="200" as="targetPoint" />
            <Array as="points">
              <mxPoint x="645" y="200" />
            </Array>
            <mxPoint x="650" y="200" as="sourcePoint" />
            <mxPoint as="offset" />
          </mxGeometry>
        </mxCell>
        <mxCell id="ZhXPPXgodXc87nbnoY75-30" value="Submit Offer()" style="html=1;verticalAlign=bottom;endArrow=block;edgeStyle=elbowEdgeStyle;elbow=vertical;curved=0;rounded=0;" edge="1" parent="1">
          <mxGeometry x="0.0755" relative="1" as="geometry">
            <mxPoint x="355" y="220" as="sourcePoint" />
            <Array as="points">
              <mxPoint x="494.75" y="220" />
            </Array>
            <mxPoint x="645" y="220" as="targetPoint" />
            <mxPoint as="offset" />
          </mxGeometry>
        </mxCell>
        <mxCell id="ZhXPPXgodXc87nbnoY75-31" value="" style="html=1;points=[];perimeter=orthogonalPerimeter;outlineConnect=0;targetShapes=umlLifeline;portConstraint=eastwest;newEdgeStyle={&quot;edgeStyle&quot;:&quot;elbowEdgeStyle&quot;,&quot;elbow&quot;:&quot;vertical&quot;,&quot;curved&quot;:0,&quot;rounded&quot;:0};fillColor=#fad9d5;strokeColor=#ae4132;" vertex="1" parent="1">
          <mxGeometry x="350" y="350" width="7.5" height="30" as="geometry" />
        </mxCell>
        <mxCell id="ZhXPPXgodXc87nbnoY75-32" value="Notify artist of accepted offer for order fulfillment()" style="html=1;verticalAlign=bottom;endArrow=open;dashed=1;endSize=8;edgeStyle=elbowEdgeStyle;elbow=horizontal;curved=0;rounded=0;" edge="1" parent="1">
          <mxGeometry x="0.0783" relative="1" as="geometry">
            <mxPoint x="357.5" y="359.5" as="targetPoint" />
            <Array as="points">
              <mxPoint x="640" y="359.5" />
            </Array>
            <mxPoint x="645" y="359.5" as="sourcePoint" />
            <mxPoint as="offset" />
          </mxGeometry>
        </mxCell>
        <mxCell id="ZhXPPXgodXc87nbnoY75-33" value="Craftopia&#39;s Auction System" style="shape=umlLifeline;perimeter=lifelinePerimeter;whiteSpace=wrap;html=1;container=0;dropTarget=0;collapsible=0;recursiveResize=0;outlineConnect=0;portConstraint=eastwest;newEdgeStyle={&quot;edgeStyle&quot;:&quot;elbowEdgeStyle&quot;,&quot;elbow&quot;:&quot;vertical&quot;,&quot;curved&quot;:0,&quot;rounded&quot;:0};fillColor=#fad9d5;strokeColor=#ae4132;" vertex="1" parent="1">
          <mxGeometry x="750" y="470" width="100" height="410" as="geometry" />
        </mxCell>
        <mxCell id="ZhXPPXgodXc87nbnoY75-34" value="" style="html=1;points=[];perimeter=orthogonalPerimeter;outlineConnect=0;targetShapes=umlLifeline;portConstraint=eastwest;newEdgeStyle={&quot;edgeStyle&quot;:&quot;elbowEdgeStyle&quot;,&quot;elbow&quot;:&quot;vertical&quot;,&quot;curved&quot;:0,&quot;rounded&quot;:0};fillColor=#fad9d5;strokeColor=#ae4132;" vertex="1" parent="ZhXPPXgodXc87nbnoY75-33">
          <mxGeometry x="45" y="70" width="10" height="340" as="geometry" />
        </mxCell>
        <mxCell id="ZhXPPXgodXc87nbnoY75-35" value="Notify of New Auction Request()" style="html=1;verticalAlign=bottom;endArrow=block;edgeStyle=elbowEdgeStyle;elbow=vertical;curved=0;rounded=0;" edge="1" parent="1" source="ZhXPPXgodXc87nbnoY75-34" target="ZhXPPXgodXc87nbnoY75-16">
          <mxGeometry x="-0.0742" relative="1" as="geometry">
            <mxPoint x="700" y="600" as="sourcePoint" />
            <Array as="points">
              <mxPoint x="705" y="610" />
              <mxPoint x="615" y="600" />
            </Array>
            <mxPoint x="510" y="600" as="targetPoint" />
            <mxPoint x="1" as="offset" />
          </mxGeometry>
        </mxCell>
        <mxCell id="ZhXPPXgodXc87nbnoY75-36" value="Scedule Auction()" style="html=1;verticalAlign=bottom;endArrow=block;edgeStyle=elbowEdgeStyle;elbow=vertical;curved=0;rounded=0;" edge="1" parent="1" source="ZhXPPXgodXc87nbnoY75-15">
          <mxGeometry x="-0.1667" relative="1" as="geometry">
            <mxPoint x="495" y="630" as="sourcePoint" />
            <Array as="points">
              <mxPoint x="570" y="630" />
              <mxPoint x="660" y="640" />
            </Array>
            <mxPoint x="799.5" y="630" as="targetPoint" />
            <mxPoint as="offset" />
          </mxGeometry>
        </mxCell>
        <mxCell id="ZhXPPXgodXc87nbnoY75-37" value="Start Auction()" style="html=1;verticalAlign=bottom;endArrow=block;edgeStyle=elbowEdgeStyle;elbow=vertical;curved=0;rounded=0;" edge="1" parent="1" source="ZhXPPXgodXc87nbnoY75-15">
          <mxGeometry x="-0.1667" relative="1" as="geometry">
            <mxPoint x="495" y="650" as="sourcePoint" />
            <Array as="points">
              <mxPoint x="570" y="650" />
              <mxPoint x="660" y="660" />
            </Array>
            <mxPoint x="799.5" y="650" as="targetPoint" />
            <mxPoint as="offset" />
          </mxGeometry>
        </mxCell>
        <mxCell id="ZhXPPXgodXc87nbnoY75-38" value="Confirm bid submission ()" style="html=1;verticalAlign=bottom;endArrow=block;edgeStyle=elbowEdgeStyle;elbow=vertical;curved=0;rounded=0;" edge="1" parent="1">
          <mxGeometry x="-0.036" relative="1" as="geometry">
            <mxPoint x="549.5" y="750" as="sourcePoint" />
            <Array as="points">
              <mxPoint x="720" y="750" />
              <mxPoint x="730" y="740" />
            </Array>
            <mxPoint x="799.5" y="750" as="targetPoint" />
            <mxPoint as="offset" />
          </mxGeometry>
        </mxCell>
        <mxCell id="ZhXPPXgodXc87nbnoY75-39" value="Notify Winner()" style="html=1;verticalAlign=bottom;endArrow=block;edgeStyle=elbowEdgeStyle;elbow=vertical;curved=0;rounded=0;" edge="1" parent="1" target="ZhXPPXgodXc87nbnoY75-18">
          <mxGeometry x="0.2093" relative="1" as="geometry">
            <mxPoint x="345" y="890" as="sourcePoint" />
            <Array as="points">
              <mxPoint x="490" y="890" />
            </Array>
            <mxPoint x="800" y="890" as="targetPoint" />
            <mxPoint as="offset" />
          </mxGeometry>
        </mxCell>
      </root>
    </mxGraphModel>
  </diagram>
</mxfile>
